<?xml version="1.0" standalone="no"?>
<!DOCTYPE svg PUBLIC "-//W3C//DTD SVG 20010904//EN"
 "http://www.w3.org/TR/2001/REC-SVG-20010904/DTD/svg10.dtd">
<svg version="1.0" xmlns="http://www.w3.org/2000/svg"
 width="500.000000pt" height="166.000000pt" viewBox="0 0 500.000000 166.000000"
 preserveAspectRatio="xMidYMid meet">
<metadata>
Created by potrace 1.13, written by Peter Selinger 2001-2015
</metadata>
<g transform="translate(0.000000,166.000000) scale(0.100000,-0.100000)"
fill="#ffffff" stroke="none">
<path d="M4508 1516 c-89 -32 -150 -119 -150 -214 0 -101 43 -170 129 -209
104 -48 220 -20 286 69 14 18 28 43 32 56 5 19 3 22 -20 22 -14 0 -42 7 -62
15 -52 22 -92 18 -136 -12 -42 -29 -109 -35 -157 -14 -21 9 -16 10 28 5 53 -6
112 9 112 28 0 5 -31 8 -69 6 -80 -4 -85 7 -9 17 41 6 58 14 78 37 72 86 75
88 132 88 73 0 84 9 57 45 -50 62 -167 91 -251 61z"/>
<path d="M350 1115 c-59 -18 -123 -73 -149 -128 -19 -39 -21 -61 -21 -225 l0
-182 55 0 55 0 0 180 0 179 35 35 c60 60 147 61 210 2 l35 -33 0 -182 0 -181
55 0 55 0 0 183 c0 210 -8 238 -80 300 -74 63 -158 80 -250 52z"/>
<path d="M958 1117 c-244 -69 -267 -422 -34 -528 89 -41 232 -14 295 54 l24
27 -34 34 -34 35 -25 -23 c-38 -36 -64 -46 -115 -46 -104 0 -170 68 -170 174
0 71 23 119 74 153 65 44 151 38 206 -13 l28 -26 35 35 35 35 -29 28 c-64 59
-170 85 -256 61z"/>
<path d="M1474 1112 c-206 -73 -255 -333 -90 -479 53 -46 101 -63 182 -63 71
0 124 23 179 74 l39 37 -37 36 -36 36 -29 -31 c-36 -39 -69 -52 -128 -52 -89
0 -154 62 -162 155 -6 70 11 116 58 159 69 63 175 55 236 -17 l25 -30 37 36
36 37 -34 35 c-71 73 -183 101 -276 67z"/>
<path d="M2897 1116 c-79 -29 -160 -114 -174 -185 -28 -134 29 -264 142 -324
57 -31 173 -30 231 0 88 47 154 155 154 254 0 92 -67 197 -154 241 -51 26
-148 33 -199 14z m151 -71 c76 -33 122 -103 122 -190 0 -165 -170 -258 -301
-164 -67 48 -97 159 -65 242 38 101 149 151 244 112z"/>
<path d="M2038 1111 c-76 -25 -145 -90 -173 -165 -27 -70 -17 -181 21 -243 40
-65 101 -109 169 -123 84 -17 154 -1 233 56 21 15 22 15 22 -2 0 -45 -25 -101
-59 -135 -75 -76 -195 -77 -272 -3 -21 20 -35 25 -64 22 l-37 -3 32 -43 c45
-62 113 -92 210 -92 91 0 140 20 192 78 55 60 68 118 68 292 0 164 -11 212
-61 273 -49 59 -109 89 -187 93 -37 2 -79 0 -94 -5z m160 -82 c117 -57 143
-230 48 -325 -83 -84 -195 -79 -274 10 -91 104 -50 274 79 325 40 16 101 12
147 -10z"/>
<path d="M2621 1098 c-58 -28 -108 -80 -135 -137 -18 -40 -21 -69 -24 -208
l-4 -163 40 0 40 0 4 158 c3 129 6 163 22 191 24 45 73 89 108 96 25 6 28 11
28 46 0 47 -13 50 -79 17z"/>
<path d="M4055 1108 c-76 -27 -154 -110 -175 -187 -5 -20 -10 -147 -10 -283
l0 -248 40 0 40 0 0 132 0 131 23 -20 c60 -55 153 -74 238 -49 114 33 193 142
193 265 -1 78 -18 124 -71 181 -69 78 -186 110 -278 78z m160 -77 c112 -50
150 -202 78 -305 -59 -83 -175 -106 -256 -50 -63 44 -90 103 -84 187 4 56 9
74 34 105 36 45 105 82 153 82 19 0 53 -9 75 -19z"/>
<path d="M3310 944 c0 -188 8 -226 58 -284 62 -73 167 -106 258 -81 58 16 128
72 153 124 19 39 21 61 21 225 l0 182 -39 0 -40 0 -3 -184 -3 -185 -30 -32
c-58 -62 -140 -76 -209 -36 -77 43 -81 56 -84 258 l-3 179 -40 0 -39 0 0 -166z"/>
</g>
</svg>
