<?xml version="1.0" standalone="no"?>
<!DOCTYPE svg PUBLIC "-//W3C//DTD SVG 20010904//EN"
 "http://www.w3.org/TR/2001/REC-SVG-20010904/DTD/svg10.dtd">
<svg version="1.0" xmlns="http://www.w3.org/2000/svg"
 width="160.000000pt" height="53.000000pt" viewBox="0 0 160.000000 53.000000"
 preserveAspectRatio="xMidYMid meet">
<metadata>
Created by potrace 1.13, written by Peter Selinger 2001-2015
</metadata>
<g transform="translate(0.000000,53.000000) scale(0.100000,-0.100000)"
fill="#000000" stroke="none">
<path d="M643 350 c-35 -14 -56 -55 -49 -94 11 -59 65 -88 116 -62 26 12 30
12 30 0 0 -21 -37 -54 -62 -54 -12 0 -30 7 -40 17 -10 9 -21 13 -26 9 -12 -13
38 -46 70 -46 17 0 39 10 53 25 21 21 25 33 25 89 0 53 -4 69 -22 90 -26 29
-63 39 -95 26z"/>
<path d="M915 348 c-31 -18 -44 -40 -45 -76 0 -84 117 -115 155 -41 22 42 18
67 -14 100 -31 30 -63 36 -96 17z"/>
<path d="M1294 350 c-42 -17 -54 -48 -54 -142 0 -52 4 -88 10 -88 6 0 10 18
10 41 0 38 2 40 23 32 64 -22 127 16 127 77 0 56 -66 101 -116 80z"/>
</g>
</svg>
